<svg xmlns="http://www.w3.org/2000/svg" viewBox="0 0 920 1240" width="920" height="1240" font-family="'Source Sans 3', 'Segoe UI', system-ui, sans-serif"><style><![CDATA[@import url('https://fonts.googleapis.com/css2?family=Playfair+Display:wght@500;600;700&family=Source+Sans+3:wght@400;600;700&display=swap');]]></style><defs><pattern id="hatch" width="8" height="8" patternUnits="userSpaceOnUse" patternTransform="rotate(45)"><line x1="0" y1="0" x2="0" y2="8" stroke="#9a9a9a" stroke-width="2"/></pattern><marker id="arrow" viewBox="0 0 10 10" refX="8" refY="5" markerWidth="7" markerHeight="7" orient="auto-start-reverse"><path d="M0,0 L10,5 L0,10 z" fill="#7a7a7a"/></marker></defs><rect x="0" y="0" width="920" height="1240" fill="#ffffff"/><text x="460.0" y="60.0" font-family="'Playfair Display', Georgia, 'Times New Roman', serif" font-size="44" fill="#ed9dbc" font-weight="600" text-anchor="middle" dominant-baseline="central" letter-spacing="3">Uvnitř</text><line x1="390.0" y1="84.2" x2="530.0" y2="84.2" stroke="#ed9dbc" stroke-width="2.5" stroke-linecap="round"/><rect x="45" y="100" width="830" height="1095" rx="18" fill="none" stroke="#9a9a9a" stroke-width="2.5"/><rect x="185" y="185" width="560" height="84" rx="16" ry="16" fill="#f9e7ef" stroke="#dbaabf" stroke-width="2"/><rect x="210.7" y="137.0" width="42" height="42" rx="9" ry="9" fill="#ffffff" stroke="#c9c9c9" stroke-width="1.6"/><text x="231.7" y="158.0" font-family="'Source Sans 3', 'Segoe UI', system-ui, sans-serif" font-size="17.64" fill="#3a3a3a" font-weight="600" text-anchor="middle" dominant-baseline="central">4</text><rect x="304.0" y="137.0" width="42" height="42" rx="9" ry="9" fill="#ffffff" stroke="#c9c9c9" stroke-width="1.6"/><text x="325.0" y="158.0" font-family="'Source Sans 3', 'Segoe UI', system-ui, sans-serif" font-size="17.64" fill="#3a3a3a" font-weight="600" text-anchor="middle" dominant-baseline="central">3</text><rect x="397.3" y="137.0" width="42" height="42" rx="9" ry="9" fill="#ffffff" stroke="#c9c9c9" stroke-width="1.6"/><text x="418.3" y="158.0" font-family="'Source Sans 3', 'Segoe UI', system-ui, sans-serif" font-size="17.64" fill="#3a3a3a" font-weight="600" text-anchor="middle" dominant-baseline="central">2</text><rect x="490.7" y="137.0" width="42" height="42" rx="9" ry="9" fill="#ffffff" stroke="#c9c9c9" stroke-width="1.6"/><text x="511.7" y="158.0" font-family="'Source Sans 3', 'Segoe UI', system-ui, sans-serif" font-size="17.64" fill="#3a3a3a" font-weight="600" text-anchor="middle" dominant-baseline="central">1</text><rect x="584.0" y="137.0" width="42" height="42" rx="9" ry="9" fill="#ffffff" stroke="#c9c9c9" stroke-width="1.6"/><text x="605.0" y="158.0" font-family="'Source Sans 3', 'Segoe UI', system-ui, sans-serif" font-size="17.64" fill="#3a3a3a" font-weight="600" text-anchor="middle" dominant-baseline="central">11</text><rect x="677.3" y="137.0" width="42" height="42" rx="9" ry="9" fill="#ffffff" stroke="#c9c9c9" stroke-width="1.6"/><text x="698.3" y="158.0" font-family="'Source Sans 3', 'Segoe UI', system-ui, sans-serif" font-size="17.64" fill="#3a3a3a" font-weight="600" text-anchor="middle" dominant-baseline="central">10</text><rect x="210.7" y="275.0" width="42" height="42" rx="9" ry="9" fill="#ffffff" stroke="#c9c9c9" stroke-width="1.6"/><text x="231.7" y="296.0" font-family="'Source Sans 3', 'Segoe UI', system-ui, sans-serif" font-size="17.64" fill="#3a3a3a" font-weight="600" text-anchor="middle" dominant-baseline="central">6</text><rect x="304.0" y="275.0" width="42" height="42" rx="9" ry="9" fill="#ffffff" stroke="#c9c9c9" stroke-width="1.6"/><text x="325.0" y="296.0" font-family="'Source Sans 3', 'Segoe UI', system-ui, sans-serif" font-size="17.64" fill="#3a3a3a" font-weight="600" text-anchor="middle" dominant-baseline="central">7</text><rect x="584.0" y="275.0" width="42" height="42" rx="9" ry="9" fill="#ffffff" stroke="#c9c9c9" stroke-width="1.6"/><text x="605.0" y="296.0" font-family="'Source Sans 3', 'Segoe UI', system-ui, sans-serif" font-size="17.64" fill="#3a3a3a" font-weight="600" text-anchor="middle" dominant-baseline="central">8</text><rect x="677.3" y="275.0" width="42" height="42" rx="9" ry="9" fill="#ffffff" stroke="#c9c9c9" stroke-width="1.6"/><text x="698.3" y="296.0" font-family="'Source Sans 3', 'Segoe UI', system-ui, sans-serif" font-size="17.64" fill="#3a3a3a" font-weight="600" text-anchor="middle" dominant-baseline="central">9</text><rect x="137.0" y="206.0" width="42" height="42" rx="9" ry="9" fill="#ffffff" stroke="#c9c9c9" stroke-width="1.6"/><text x="158.0" y="227.0" font-family="'Source Sans 3', 'Segoe UI', system-ui, sans-serif" font-size="17.64" fill="#3a3a3a" font-weight="600" text-anchor="middle" dominant-baseline="central">5</text><rect x="45" y="345" width="355" height="24" fill="url(#hatch)" stroke="#9a9a9a" stroke-width="1.5"/><rect x="530" y="345" width="345" height="24" fill="url(#hatch)" stroke="#9a9a9a" stroke-width="1.5"/><text x="222.0" y="388.0" font-family="'Source Sans 3', 'Segoe UI', system-ui, sans-serif" font-size="14" fill="#7a7a7a" font-weight="600" text-anchor="middle" dominant-baseline="central">zídka</text><text x="702.0" y="388.0" font-family="'Source Sans 3', 'Segoe UI', system-ui, sans-serif" font-size="14" fill="#7a7a7a" font-weight="600" text-anchor="middle" dominant-baseline="central">zídka</text><rect x="400" y="333" width="130" height="48" rx="4" fill="#f0f0f0" stroke="#9a9a9a" stroke-width="1.5"/><line x1="400" y1="345.0" x2="530" y2="345.0" stroke="#9a9a9a" stroke-width="1.2"/><line x1="400" y1="357.0" x2="530" y2="357.0" stroke="#9a9a9a" stroke-width="1.2"/><line x1="400" y1="369.0" x2="530" y2="369.0" stroke="#9a9a9a" stroke-width="1.2"/><text x="465.0" y="396.0" font-family="'Source Sans 3', 'Segoe UI', system-ui, sans-serif" font-size="15" fill="#7a7a7a" font-weight="600" text-anchor="middle" dominant-baseline="central">Schody</text><rect x="210" y="510" width="80" height="100" rx="16" ry="16" fill="#f9e7ef" stroke="#dbaabf" stroke-width="2"/><rect x="162.0" y="515.0" width="42" height="42" rx="9" ry="9" fill="#ffffff" stroke="#c9c9c9" stroke-width="1.6"/><text x="183.0" y="536.0" font-family="'Source Sans 3', 'Segoe UI', system-ui, sans-serif" font-size="17.64" fill="#3a3a3a" font-weight="600" text-anchor="middle" dominant-baseline="central">15</text><rect x="162.0" y="563.0" width="42" height="42" rx="9" ry="9" fill="#ffffff" stroke="#c9c9c9" stroke-width="1.6"/><text x="183.0" y="584.0" font-family="'Source Sans 3', 'Segoe UI', system-ui, sans-serif" font-size="17.64" fill="#3a3a3a" font-weight="600" text-anchor="middle" dominant-baseline="central">14</text><rect x="296.0" y="515.0" width="42" height="42" rx="9" ry="9" fill="#ffffff" stroke="#c9c9c9" stroke-width="1.6"/><text x="317.0" y="536.0" font-family="'Source Sans 3', 'Segoe UI', system-ui, sans-serif" font-size="17.64" fill="#3a3a3a" font-weight="600" text-anchor="middle" dominant-baseline="central">12</text><rect x="296.0" y="563.0" width="42" height="42" rx="9" ry="9" fill="#ffffff" stroke="#c9c9c9" stroke-width="1.6"/><text x="317.0" y="584.0" font-family="'Source Sans 3', 'Segoe UI', system-ui, sans-serif" font-size="17.64" fill="#3a3a3a" font-weight="600" text-anchor="middle" dominant-baseline="central">13</text><rect x="560" y="470" width="150" height="560" rx="16" ry="16" fill="#f9e7ef" stroke="#dbaabf" stroke-width="2"/><rect x="511.0" y="489.0" width="42" height="42" rx="9" ry="9" fill="#ffffff" stroke="#c9c9c9" stroke-width="1.6"/><text x="532.0" y="510.0" font-family="'Source Sans 3', 'Segoe UI', system-ui, sans-serif" font-size="17.64" fill="#3a3a3a" font-weight="600" text-anchor="middle" dominant-baseline="central">30</text><rect x="511.0" y="569.0" width="42" height="42" rx="9" ry="9" fill="#ffffff" stroke="#c9c9c9" stroke-width="1.6"/><text x="532.0" y="590.0" font-family="'Source Sans 3', 'Segoe UI', system-ui, sans-serif" font-size="17.64" fill="#3a3a3a" font-weight="600" text-anchor="middle" dominant-baseline="central">29</text><rect x="511.0" y="649.0" width="42" height="42" rx="9" ry="9" fill="#ffffff" stroke="#c9c9c9" stroke-width="1.6"/><text x="532.0" y="670.0" font-family="'Source Sans 3', 'Segoe UI', system-ui, sans-serif" font-size="17.64" fill="#3a3a3a" font-weight="600" text-anchor="middle" dominant-baseline="central">28</text><rect x="511.0" y="729.0" width="42" height="42" rx="9" ry="9" fill="#ffffff" stroke="#c9c9c9" stroke-width="1.6"/><text x="532.0" y="750.0" font-family="'Source Sans 3', 'Segoe UI', system-ui, sans-serif" font-size="17.64" fill="#3a3a3a" font-weight="600" text-anchor="middle" dominant-baseline="central">27</text><rect x="511.0" y="809.0" width="42" height="42" rx="9" ry="9" fill="#ffffff" stroke="#c9c9c9" stroke-width="1.6"/><text x="532.0" y="830.0" font-family="'Source Sans 3', 'Segoe UI', system-ui, sans-serif" font-size="17.64" fill="#3a3a3a" font-weight="600" text-anchor="middle" dominant-baseline="central">26</text><rect x="511.0" y="889.0" width="42" height="42" rx="9" ry="9" fill="#ffffff" stroke="#c9c9c9" stroke-width="1.6"/><text x="532.0" y="910.0" font-family="'Source Sans 3', 'Segoe UI', system-ui, sans-serif" font-size="17.64" fill="#3a3a3a" font-weight="600" text-anchor="middle" dominant-baseline="central">25</text><rect x="511.0" y="969.0" width="42" height="42" rx="9" ry="9" fill="#ffffff" stroke="#c9c9c9" stroke-width="1.6"/><text x="532.0" y="990.0" font-family="'Source Sans 3', 'Segoe UI', system-ui, sans-serif" font-size="17.64" fill="#3a3a3a" font-weight="600" text-anchor="middle" dominant-baseline="central">24</text><rect x="717.0" y="489.0" width="42" height="42" rx="9" ry="9" fill="#ffffff" stroke="#c9c9c9" stroke-width="1.6"/><text x="738.0" y="510.0" font-family="'Source Sans 3', 'Segoe UI', system-ui, sans-serif" font-size="17.64" fill="#3a3a3a" font-weight="600" text-anchor="middle" dominant-baseline="central">16</text><rect x="717.0" y="569.0" width="42" height="42" rx="9" ry="9" fill="#ffffff" stroke="#c9c9c9" stroke-width="1.6"/><text x="738.0" y="590.0" font-family="'Source Sans 3', 'Segoe UI', system-ui, sans-serif" font-size="17.64" fill="#3a3a3a" font-weight="600" text-anchor="middle" dominant-baseline="central">17</text><rect x="717.0" y="649.0" width="42" height="42" rx="9" ry="9" fill="#ffffff" stroke="#c9c9c9" stroke-width="1.6"/><text x="738.0" y="670.0" font-family="'Source Sans 3', 'Segoe UI', system-ui, sans-serif" font-size="17.64" fill="#3a3a3a" font-weight="600" text-anchor="middle" dominant-baseline="central">18</text><rect x="717.0" y="729.0" width="42" height="42" rx="9" ry="9" fill="#ffffff" stroke="#c9c9c9" stroke-width="1.6"/><text x="738.0" y="750.0" font-family="'Source Sans 3', 'Segoe UI', system-ui, sans-serif" font-size="17.64" fill="#3a3a3a" font-weight="600" text-anchor="middle" dominant-baseline="central">19</text><rect x="717.0" y="809.0" width="42" height="42" rx="9" ry="9" fill="#ffffff" stroke="#c9c9c9" stroke-width="1.6"/><text x="738.0" y="830.0" font-family="'Source Sans 3', 'Segoe UI', system-ui, sans-serif" font-size="17.64" fill="#3a3a3a" font-weight="600" text-anchor="middle" dominant-baseline="central">20</text><rect x="717.0" y="889.0" width="42" height="42" rx="9" ry="9" fill="#ffffff" stroke="#c9c9c9" stroke-width="1.6"/><text x="738.0" y="910.0" font-family="'Source Sans 3', 'Segoe UI', system-ui, sans-serif" font-size="17.64" fill="#3a3a3a" font-weight="600" text-anchor="middle" dominant-baseline="central">21</text><rect x="717.0" y="969.0" width="42" height="42" rx="9" ry="9" fill="#ffffff" stroke="#c9c9c9" stroke-width="1.6"/><text x="738.0" y="990.0" font-family="'Source Sans 3', 'Segoe UI', system-ui, sans-serif" font-size="17.64" fill="#3a3a3a" font-weight="600" text-anchor="middle" dominant-baseline="central">22</text><rect x="614.0" y="1039.0" width="42" height="42" rx="9" ry="9" fill="#ffffff" stroke="#c9c9c9" stroke-width="1.6"/><text x="635.0" y="1060.0" font-family="'Source Sans 3', 'Segoe UI', system-ui, sans-serif" font-size="17.64" fill="#3a3a3a" font-weight="600" text-anchor="middle" dominant-baseline="central">23</text><rect x="45" y="800" width="110" height="90" rx="12" fill="#f3ece2" stroke="#dbaabf" stroke-width="1.6"/><line x1="130" y1="835" x2="70" y2="835" stroke="#7a7a7a" stroke-width="2.5" marker-end="url(#arrow)"/><text x="100.0" y="864.0" font-family="'Source Sans 3', 'Segoe UI', system-ui, sans-serif" font-size="15" fill="#3a3a3a" font-weight="600" text-anchor="middle" dominant-baseline="central">Toalety</text><rect x="45" y="1060" width="390" height="135" rx="12" fill="#f3ece2" stroke="#dbaabf" stroke-width="1.6"/><text x="240.0" y="1127.5" font-family="'Playfair Display', Georgia, 'Times New Roman', serif" font-size="30" fill="#3a3a3a" font-weight="600" text-anchor="middle" dominant-baseline="central" letter-spacing="1">Bar</text><line x1="805" y1="1130" x2="745" y2="1130" stroke="#7a7a7a" stroke-width="2.5" marker-end="url(#arrow)"/><text x="775.0" y="1158.0" font-family="'Source Sans 3', 'Segoe UI', system-ui, sans-serif" font-size="18" fill="#3a3a3a" font-weight="600" text-anchor="middle" dominant-baseline="central">Vchod</text></svg>