<svg xmlns="http://www.w3.org/2000/svg" viewBox="0 0 560 981.0" width="560" height="981.0" font-family="'Source Sans 3', 'Segoe UI', system-ui, sans-serif"><style><![CDATA[@import url('https://fonts.googleapis.com/css2?family=Playfair+Display:wght@500;600;700&family=Source+Sans+3:wght@400;600;700&display=swap');]]></style><defs><pattern id="hatch" width="8" height="8" patternUnits="userSpaceOnUse" patternTransform="rotate(45)"><line x1="0" y1="0" x2="0" y2="8" stroke="#9a9a9a" stroke-width="2"/></pattern><marker id="arrow" viewBox="0 0 10 10" refX="8" refY="5" markerWidth="7" markerHeight="7" orient="auto-start-reverse"><path d="M0,0 L10,5 L0,10 z" fill="#7a7a7a"/></marker></defs><rect x="0" y="0" width="560" height="981.0" fill="#ffffff"/><text x="280.0" y="60.0" font-family="'Playfair Display', Georgia, 'Times New Roman', serif" font-size="44" fill="#ed9dbc" font-weight="600" text-anchor="middle" dominant-baseline="central" letter-spacing="3">Venku</text><line x1="210.0" y1="84.2" x2="350.0" y2="84.2" stroke="#ed9dbc" stroke-width="2.5" stroke-linecap="round"/><rect x="105" y="139.0" width="350" height="750.0" rx="18" fill="none" stroke="#9a9a9a" stroke-width="2.5"/><path d="M63,153 L63,889 L129,889" fill="none" stroke="#9a9a9a" stroke-width="2" stroke-linejoin="round"/><rect x="232.0" y="220.0" width="96" height="60" rx="16" ry="16" fill="#f9e7ef" stroke="#dbaabf" stroke-width="2"/><rect x="289.0" y="171.0" width="42" height="42" rx="9" ry="9" fill="#ffffff" stroke="#c9c9c9" stroke-width="1.6"/><text x="310.0" y="192.0" font-family="'Source Sans 3', 'Segoe UI', system-ui, sans-serif" font-size="17.64" fill="#3a3a3a" font-weight="600" text-anchor="middle" dominant-baseline="central">31</text><rect x="229.0" y="287.0" width="42" height="42" rx="9" ry="9" fill="#ffffff" stroke="#c9c9c9" stroke-width="1.6"/><text x="250.0" y="308.0" font-family="'Source Sans 3', 'Segoe UI', system-ui, sans-serif" font-size="17.64" fill="#3a3a3a" font-weight="600" text-anchor="middle" dominant-baseline="central">32</text><rect x="289.0" y="287.0" width="42" height="42" rx="9" ry="9" fill="#ffffff" stroke="#c9c9c9" stroke-width="1.6"/><text x="310.0" y="308.0" font-family="'Source Sans 3', 'Segoe UI', system-ui, sans-serif" font-size="17.64" fill="#3a3a3a" font-weight="600" text-anchor="middle" dominant-baseline="central">33</text><rect x="232.0" y="396.0" width="96" height="60" rx="16" ry="16" fill="#f9e7ef" stroke="#dbaabf" stroke-width="2"/><rect x="229.0" y="347.0" width="42" height="42" rx="9" ry="9" fill="#ffffff" stroke="#c9c9c9" stroke-width="1.6"/><text x="250.0" y="368.0" font-family="'Source Sans 3', 'Segoe UI', system-ui, sans-serif" font-size="17.64" fill="#3a3a3a" font-weight="600" text-anchor="middle" dominant-baseline="central">34</text><rect x="289.0" y="347.0" width="42" height="42" rx="9" ry="9" fill="#ffffff" stroke="#c9c9c9" stroke-width="1.6"/><text x="310.0" y="368.0" font-family="'Source Sans 3', 'Segoe UI', system-ui, sans-serif" font-size="17.64" fill="#3a3a3a" font-weight="600" text-anchor="middle" dominant-baseline="central">35</text><rect x="229.0" y="463.0" width="42" height="42" rx="9" ry="9" fill="#ffffff" stroke="#c9c9c9" stroke-width="1.6"/><text x="250.0" y="484.0" font-family="'Source Sans 3', 'Segoe UI', system-ui, sans-serif" font-size="17.64" fill="#3a3a3a" font-weight="600" text-anchor="middle" dominant-baseline="central">36</text><rect x="289.0" y="463.0" width="42" height="42" rx="9" ry="9" fill="#ffffff" stroke="#c9c9c9" stroke-width="1.6"/><text x="310.0" y="484.0" font-family="'Source Sans 3', 'Segoe UI', system-ui, sans-serif" font-size="17.64" fill="#3a3a3a" font-weight="600" text-anchor="middle" dominant-baseline="central">37</text><rect x="232.0" y="572.0" width="96" height="60" rx="16" ry="16" fill="#f9e7ef" stroke="#dbaabf" stroke-width="2"/><rect x="229.0" y="523.0" width="42" height="42" rx="9" ry="9" fill="#ffffff" stroke="#c9c9c9" stroke-width="1.6"/><text x="250.0" y="544.0" font-family="'Source Sans 3', 'Segoe UI', system-ui, sans-serif" font-size="17.64" fill="#3a3a3a" font-weight="600" text-anchor="middle" dominant-baseline="central">38</text><rect x="289.0" y="523.0" width="42" height="42" rx="9" ry="9" fill="#ffffff" stroke="#c9c9c9" stroke-width="1.6"/><text x="310.0" y="544.0" font-family="'Source Sans 3', 'Segoe UI', system-ui, sans-serif" font-size="17.64" fill="#3a3a3a" font-weight="600" text-anchor="middle" dominant-baseline="central">39</text><rect x="229.0" y="639.0" width="42" height="42" rx="9" ry="9" fill="#ffffff" stroke="#c9c9c9" stroke-width="1.6"/><text x="250.0" y="660.0" font-family="'Source Sans 3', 'Segoe UI', system-ui, sans-serif" font-size="17.64" fill="#3a3a3a" font-weight="600" text-anchor="middle" dominant-baseline="central">40</text><rect x="289.0" y="639.0" width="42" height="42" rx="9" ry="9" fill="#ffffff" stroke="#c9c9c9" stroke-width="1.6"/><text x="310.0" y="660.0" font-family="'Source Sans 3', 'Segoe UI', system-ui, sans-serif" font-size="17.64" fill="#3a3a3a" font-weight="600" text-anchor="middle" dominant-baseline="central">41</text><rect x="232.0" y="748.0" width="96" height="60" rx="16" ry="16" fill="#f9e7ef" stroke="#dbaabf" stroke-width="2"/><rect x="229.0" y="699.0" width="42" height="42" rx="9" ry="9" fill="#ffffff" stroke="#c9c9c9" stroke-width="1.6"/><text x="250.0" y="720.0" font-family="'Source Sans 3', 'Segoe UI', system-ui, sans-serif" font-size="17.64" fill="#3a3a3a" font-weight="600" text-anchor="middle" dominant-baseline="central">42</text><rect x="289.0" y="699.0" width="42" height="42" rx="9" ry="9" fill="#ffffff" stroke="#c9c9c9" stroke-width="1.6"/><text x="310.0" y="720.0" font-family="'Source Sans 3', 'Segoe UI', system-ui, sans-serif" font-size="17.64" fill="#3a3a3a" font-weight="600" text-anchor="middle" dominant-baseline="central">43</text><rect x="229.0" y="815.0" width="42" height="42" rx="9" ry="9" fill="#ffffff" stroke="#c9c9c9" stroke-width="1.6"/><text x="250.0" y="836.0" font-family="'Source Sans 3', 'Segoe UI', system-ui, sans-serif" font-size="17.64" fill="#3a3a3a" font-weight="600" text-anchor="middle" dominant-baseline="central">44</text><rect x="289.0" y="815.0" width="42" height="42" rx="9" ry="9" fill="#ffffff" stroke="#c9c9c9" stroke-width="1.6"/><text x="310.0" y="836.0" font-family="'Source Sans 3', 'Segoe UI', system-ui, sans-serif" font-size="17.64" fill="#3a3a3a" font-weight="600" text-anchor="middle" dominant-baseline="central">45</text><line x1="105" y1="923.0" x2="45" y2="923.0" stroke="#7a7a7a" stroke-width="2.5" marker-end="url(#arrow)"/><text x="75.0" y="951.0" font-family="'Source Sans 3', 'Segoe UI', system-ui, sans-serif" font-size="18" fill="#3a3a3a" font-weight="600" text-anchor="middle" dominant-baseline="central">Vchod</text></svg>