<svg xmlns="http://www.w3.org/2000/svg" viewBox="0 0 560 820" width="560" height="820" font-family="'Source Sans 3', 'Segoe UI', system-ui, sans-serif"><style><![CDATA[@import url('https://fonts.googleapis.com/css2?family=Playfair+Display:wght@500;600;700&family=Source+Sans+3:wght@400;600;700&display=swap');]]></style><defs><pattern id="hatch" width="8" height="8" patternUnits="userSpaceOnUse" patternTransform="rotate(45)"><line x1="0" y1="0" x2="0" y2="8" stroke="#9a9a9a" stroke-width="2"/></pattern><marker id="arrow" viewBox="0 0 10 10" refX="8" refY="5" markerWidth="7" markerHeight="7" orient="auto-start-reverse"><path d="M0,0 L10,5 L0,10 z" fill="#7a7a7a"/></marker></defs><rect x="0" y="0" width="560" height="820" fill="#ffffff"/><text x="280.0" y="60.0" font-family="'Playfair Display', Georgia, 'Times New Roman', serif" font-size="44" fill="#ed9dbc" font-weight="600" text-anchor="middle" dominant-baseline="central" letter-spacing="3">Venku</text><line x1="210.0" y1="84.2" x2="350.0" y2="84.2" stroke="#ed9dbc" stroke-width="2.5" stroke-linecap="round"/><rect x="140" y="125" width="300" height="590" rx="18" fill="none" stroke="#9a9a9a" stroke-width="2.5"/><path d="M95,135 L95,725 L150,725" fill="none" stroke="#9a9a9a" stroke-width="2" stroke-linejoin="round"/><rect x="250" y="170" width="110" height="430" rx="16" ry="16" fill="#f9e7ef" stroke="#dbaabf" stroke-width="2"/><rect x="201.0" y="189.0" width="42" height="42" rx="9" ry="9" fill="#ffffff" stroke="#c9c9c9" stroke-width="1.6"/><text x="222.0" y="210.0" font-family="'Source Sans 3', 'Segoe UI', system-ui, sans-serif" font-size="17.64" fill="#3a3a3a" font-weight="600" text-anchor="middle" dominant-baseline="central">45</text><rect x="201.0" y="247.3" width="42" height="42" rx="9" ry="9" fill="#ffffff" stroke="#c9c9c9" stroke-width="1.6"/><text x="222.0" y="268.3" font-family="'Source Sans 3', 'Segoe UI', system-ui, sans-serif" font-size="17.64" fill="#3a3a3a" font-weight="600" text-anchor="middle" dominant-baseline="central">44</text><rect x="201.0" y="305.7" width="42" height="42" rx="9" ry="9" fill="#ffffff" stroke="#c9c9c9" stroke-width="1.6"/><text x="222.0" y="326.7" font-family="'Source Sans 3', 'Segoe UI', system-ui, sans-serif" font-size="17.64" fill="#3a3a3a" font-weight="600" text-anchor="middle" dominant-baseline="central">43</text><rect x="201.0" y="364.0" width="42" height="42" rx="9" ry="9" fill="#ffffff" stroke="#c9c9c9" stroke-width="1.6"/><text x="222.0" y="385.0" font-family="'Source Sans 3', 'Segoe UI', system-ui, sans-serif" font-size="17.64" fill="#3a3a3a" font-weight="600" text-anchor="middle" dominant-baseline="central">42</text><rect x="201.0" y="422.3" width="42" height="42" rx="9" ry="9" fill="#ffffff" stroke="#c9c9c9" stroke-width="1.6"/><text x="222.0" y="443.3" font-family="'Source Sans 3', 'Segoe UI', system-ui, sans-serif" font-size="17.64" fill="#3a3a3a" font-weight="600" text-anchor="middle" dominant-baseline="central">41</text><rect x="201.0" y="480.7" width="42" height="42" rx="9" ry="9" fill="#ffffff" stroke="#c9c9c9" stroke-width="1.6"/><text x="222.0" y="501.7" font-family="'Source Sans 3', 'Segoe UI', system-ui, sans-serif" font-size="17.64" fill="#3a3a3a" font-weight="600" text-anchor="middle" dominant-baseline="central">40</text><rect x="201.0" y="539.0" width="42" height="42" rx="9" ry="9" fill="#ffffff" stroke="#c9c9c9" stroke-width="1.6"/><text x="222.0" y="560.0" font-family="'Source Sans 3', 'Segoe UI', system-ui, sans-serif" font-size="17.64" fill="#3a3a3a" font-weight="600" text-anchor="middle" dominant-baseline="central">39</text><rect x="367.0" y="189.0" width="42" height="42" rx="9" ry="9" fill="#ffffff" stroke="#c9c9c9" stroke-width="1.6"/><text x="388.0" y="210.0" font-family="'Source Sans 3', 'Segoe UI', system-ui, sans-serif" font-size="17.64" fill="#3a3a3a" font-weight="600" text-anchor="middle" dominant-baseline="central">31</text><rect x="367.0" y="247.3" width="42" height="42" rx="9" ry="9" fill="#ffffff" stroke="#c9c9c9" stroke-width="1.6"/><text x="388.0" y="268.3" font-family="'Source Sans 3', 'Segoe UI', system-ui, sans-serif" font-size="17.64" fill="#3a3a3a" font-weight="600" text-anchor="middle" dominant-baseline="central">32</text><rect x="367.0" y="305.7" width="42" height="42" rx="9" ry="9" fill="#ffffff" stroke="#c9c9c9" stroke-width="1.6"/><text x="388.0" y="326.7" font-family="'Source Sans 3', 'Segoe UI', system-ui, sans-serif" font-size="17.64" fill="#3a3a3a" font-weight="600" text-anchor="middle" dominant-baseline="central">33</text><rect x="367.0" y="364.0" width="42" height="42" rx="9" ry="9" fill="#ffffff" stroke="#c9c9c9" stroke-width="1.6"/><text x="388.0" y="385.0" font-family="'Source Sans 3', 'Segoe UI', system-ui, sans-serif" font-size="17.64" fill="#3a3a3a" font-weight="600" text-anchor="middle" dominant-baseline="central">34</text><rect x="367.0" y="422.3" width="42" height="42" rx="9" ry="9" fill="#ffffff" stroke="#c9c9c9" stroke-width="1.6"/><text x="388.0" y="443.3" font-family="'Source Sans 3', 'Segoe UI', system-ui, sans-serif" font-size="17.64" fill="#3a3a3a" font-weight="600" text-anchor="middle" dominant-baseline="central">35</text><rect x="367.0" y="480.7" width="42" height="42" rx="9" ry="9" fill="#ffffff" stroke="#c9c9c9" stroke-width="1.6"/><text x="388.0" y="501.7" font-family="'Source Sans 3', 'Segoe UI', system-ui, sans-serif" font-size="17.64" fill="#3a3a3a" font-weight="600" text-anchor="middle" dominant-baseline="central">36</text><rect x="367.0" y="539.0" width="42" height="42" rx="9" ry="9" fill="#ffffff" stroke="#c9c9c9" stroke-width="1.6"/><text x="388.0" y="560.0" font-family="'Source Sans 3', 'Segoe UI', system-ui, sans-serif" font-size="17.64" fill="#3a3a3a" font-weight="600" text-anchor="middle" dominant-baseline="central">37</text><rect x="284.0" y="609.0" width="42" height="42" rx="9" ry="9" fill="#ffffff" stroke="#c9c9c9" stroke-width="1.6"/><text x="305.0" y="630.0" font-family="'Source Sans 3', 'Segoe UI', system-ui, sans-serif" font-size="17.64" fill="#3a3a3a" font-weight="600" text-anchor="middle" dominant-baseline="central">38</text><line x1="140" y1="755" x2="80" y2="755" stroke="#7a7a7a" stroke-width="2.5" marker-end="url(#arrow)"/><text x="110.0" y="783.0" font-family="'Source Sans 3', 'Segoe UI', system-ui, sans-serif" font-size="18" fill="#3a3a3a" font-weight="600" text-anchor="middle" dominant-baseline="central">Vchod</text></svg>