<svg xmlns="http://www.w3.org/2000/svg" viewBox="0 0 560 1041.0" width="560" height="1041.0" font-family="'Source Sans 3', 'Segoe UI', system-ui, sans-serif"><style><![CDATA[@import url('https://fonts.googleapis.com/css2?family=Playfair+Display:wght@500;600;700&family=Source+Sans+3:wght@400;600;700&display=swap');]]></style><defs><pattern id="hatch" width="8" height="8" patternUnits="userSpaceOnUse" patternTransform="rotate(45)"><line x1="0" y1="0" x2="0" y2="8" stroke="#9a9a9a" stroke-width="2"/></pattern><marker id="arrow" viewBox="0 0 10 10" refX="8" refY="5" markerWidth="7" markerHeight="7" orient="auto-start-reverse"><path d="M0,0 L10,5 L0,10 z" fill="#7a7a7a"/></marker></defs><rect x="0" y="0" width="560" height="1041.0" fill="#ffffff"/><text x="280.0" y="60.0" font-family="'Playfair Display', Georgia, 'Times New Roman', serif" font-size="44" fill="#ed9dbc" font-weight="600" text-anchor="middle" dominant-baseline="central" letter-spacing="3">Venku</text><line x1="210.0" y1="84.2" x2="350.0" y2="84.2" stroke="#ed9dbc" stroke-width="2.5" stroke-linecap="round"/><rect x="105" y="133.0" width="350" height="816.0" rx="18" fill="none" stroke="#9a9a9a" stroke-width="2.5"/><path d="M63,147 L63,949 L129,949" fill="none" stroke="#9a9a9a" stroke-width="2" stroke-linejoin="round"/><rect x="205.0" y="218.0" width="150" height="64" rx="16" ry="16" fill="#f9e7ef" stroke="#dbaabf" stroke-width="2"/><rect x="284.0" y="165.0" width="80" height="46" rx="9" ry="9" fill="#ffffff" stroke="#c9c9c9" stroke-width="1.6"/><text x="324.0" y="188.0" font-family="'Source Sans 3', 'Segoe UI', system-ui, sans-serif" font-size="13" fill="#3a3a3a" font-weight="600" text-anchor="middle" dominant-baseline="central">Michal Z.</text><rect x="196.0" y="289.0" width="80" height="46" rx="9" ry="9" fill="#ffffff" stroke="#c9c9c9" stroke-width="1.6"/><text x="236.0" y="312.0" font-family="'Source Sans 3', 'Segoe UI', system-ui, sans-serif" font-size="13" fill="#3a3a3a" font-weight="600" text-anchor="middle" dominant-baseline="central">Monča</text><rect x="284.0" y="289.0" width="80" height="46" rx="9" ry="9" fill="#ffffff" stroke="#c9c9c9" stroke-width="1.6"/><text x="324.0" y="312.0" font-family="'Source Sans 3', 'Segoe UI', system-ui, sans-serif" font-size="13" fill="#3a3a3a" font-weight="600" text-anchor="middle" dominant-baseline="central">Amálka</text><rect x="205.0" y="412.0" width="150" height="64" rx="16" ry="16" fill="#f9e7ef" stroke="#dbaabf" stroke-width="2"/><rect x="196.0" y="359.0" width="80" height="46" rx="9" ry="9" fill="#ffffff" stroke="#c9c9c9" stroke-width="1.6"/><text x="236.0" y="382.0" font-family="'Source Sans 3', 'Segoe UI', system-ui, sans-serif" font-size="13" fill="#3a3a3a" font-weight="600" text-anchor="middle" dominant-baseline="central">Magda</text><rect x="284.0" y="359.0" width="80" height="46" rx="9" ry="9" fill="#ffffff" stroke="#c9c9c9" stroke-width="1.6"/><text x="324.0" y="382.0" font-family="'Source Sans 3', 'Segoe UI', system-ui, sans-serif" font-size="13" fill="#3a3a3a" font-weight="600" text-anchor="middle" dominant-baseline="central">Pavel</text><rect x="196.0" y="483.0" width="80" height="46" rx="9" ry="9" fill="#ffffff" stroke="#c9c9c9" stroke-width="1.6"/><text x="236.0" y="506.0" font-family="'Source Sans 3', 'Segoe UI', system-ui, sans-serif" font-size="13" fill="#3a3a3a" font-weight="600" text-anchor="middle" dominant-baseline="central">Anet</text><rect x="284.0" y="483.0" width="80" height="46" rx="9" ry="9" fill="#ffffff" stroke="#c9c9c9" stroke-width="1.6"/><text x="324.0" y="506.0" font-family="'Source Sans 3', 'Segoe UI', system-ui, sans-serif" font-size="13" fill="#3a3a3a" font-weight="600" text-anchor="middle" dominant-baseline="central">Adam</text><rect x="205.0" y="606.0" width="150" height="64" rx="16" ry="16" fill="#f9e7ef" stroke="#dbaabf" stroke-width="2"/><rect x="196.0" y="553.0" width="80" height="46" rx="9" ry="9" fill="#ffffff" stroke="#c9c9c9" stroke-width="1.6"/><text x="236.0" y="576.0" font-family="'Source Sans 3', 'Segoe UI', system-ui, sans-serif" font-size="13" fill="#3a3a3a" font-weight="600" text-anchor="middle" dominant-baseline="central">Ester</text><rect x="284.0" y="553.0" width="80" height="46" rx="9" ry="9" fill="#ffffff" stroke="#c9c9c9" stroke-width="1.6"/><text x="324.0" y="576.0" font-family="'Source Sans 3', 'Segoe UI', system-ui, sans-serif" font-size="13" fill="#3a3a3a" font-weight="600" text-anchor="middle" dominant-baseline="central">Dominik</text><rect x="196.0" y="677.0" width="80" height="46" rx="9" ry="9" fill="#ffffff" stroke="#c9c9c9" stroke-width="1.6"/><text x="236.0" y="700.0" font-family="'Source Sans 3', 'Segoe UI', system-ui, sans-serif" font-size="13" fill="#3a3a3a" font-weight="600" text-anchor="middle" dominant-baseline="central">Eliška</text><rect x="284.0" y="677.0" width="80" height="46" rx="9" ry="9" fill="#ffffff" stroke="#c9c9c9" stroke-width="1.6"/><text x="324.0" y="700.0" font-family="'Source Sans 3', 'Segoe UI', system-ui, sans-serif" font-size="13" fill="#3a3a3a" font-weight="600" text-anchor="middle" dominant-baseline="central">Martin P.</text><rect x="205.0" y="800.0" width="150" height="64" rx="16" ry="16" fill="#f9e7ef" stroke="#dbaabf" stroke-width="2"/><rect x="196.0" y="747.0" width="80" height="46" rx="9" ry="9" fill="#ffffff" stroke="#c9c9c9" stroke-width="1.6"/><text x="236.0" y="770.0" font-family="'Source Sans 3', 'Segoe UI', system-ui, sans-serif" font-size="13" fill="#3a3a3a" font-weight="600" text-anchor="middle" dominant-baseline="central">Klára</text><rect x="284.0" y="747.0" width="80" height="46" rx="9" ry="9" fill="#ffffff" stroke="#c9c9c9" stroke-width="1.6"/><text x="324.0" y="770.0" font-family="'Source Sans 3', 'Segoe UI', system-ui, sans-serif" font-size="13" fill="#3a3a3a" font-weight="600" text-anchor="middle" dominant-baseline="central">André</text><rect x="196.0" y="871.0" width="80" height="46" rx="9" ry="9" fill="#ffffff" stroke="#c9c9c9" stroke-width="1.6"/><text x="236.0" y="894.0" font-family="'Source Sans 3', 'Segoe UI', system-ui, sans-serif" font-size="13" fill="#3a3a3a" font-weight="600" text-anchor="middle" dominant-baseline="central">Míša</text><rect x="284.0" y="871.0" width="80" height="46" rx="9" ry="9" fill="#ffffff" stroke="#c9c9c9" stroke-width="1.6"/><text x="324.0" y="894.0" font-family="'Source Sans 3', 'Segoe UI', system-ui, sans-serif" font-size="13" fill="#3a3a3a" font-weight="600" text-anchor="middle" dominant-baseline="central">Valda</text><line x1="105" y1="983.0" x2="45" y2="983.0" stroke="#7a7a7a" stroke-width="2.5" marker-end="url(#arrow)"/><text x="75.0" y="1011.0" font-family="'Source Sans 3', 'Segoe UI', system-ui, sans-serif" font-size="18" fill="#3a3a3a" font-weight="600" text-anchor="middle" dominant-baseline="central">Vchod</text></svg>