<svg xmlns="http://www.w3.org/2000/svg" width="32" height="32" viewBox="0 0 32 32">
  <rect width="32" height="32" rx="4" fill="#ed9dbc"/>
  <path transform="translate(16 16) scale(0.01644 -0.01644) translate(-876.799 -267.000)" d="M642.39794921875 708.0Q638.39794921875 657.4005126953125 636.89794921875 610.2009887695312Q635.39794921875 563.00146484375 635.39794921875 538.001708984375Q635.39794921875 515.8016357421875 636.39794921875 496.0015869140625Q637.39794921875 476.2015380859375 638.39794921875 462.00146484375H615.39794921875Q598.79833984375 546.40087890625 574.4988403320312 595.0005493164062Q550.1993408203125 643.6002197265625 516.2994995117188 664.3001098632812Q482.399658203125 685.0 435.5989990234375 685.0H413.397705078125V114.2000732421875Q413.397705078125 73.60009765625 421.4976806640625 53.60009765625Q429.59765625 33.60009765625 452.797607421875 27.2000732421875Q475.99755859375 20.800048828125 520.3974609375 20.0V0.0Q488.9976806640625 1.4000244140625 437.29815673828125 2.20001220703125Q385.5986328125 3.0 330.19921875 3.0Q274.9996337890625 3.0 226.20001220703125 2.20001220703125Q177.400390625 1.4000244140625 147.400634765625 0.0V20.0Q191.800537109375 20.800048828125 215.00048828125 27.2000732421875Q238.200439453125 33.60009765625 246.3004150390625 53.60009765625Q254.400390625 73.60009765625 254.400390625 114.2000732421875V685.0H232.1990966796875Q185.7984619140625 685.0 151.6986083984375 664.3001098632812Q117.5987548828125 643.6002197265625 93.5992431640625 595.300537109375Q69.5997314453125 547.0008544921875 52.400146484375 462.00146484375H29.400146484375Q31.400146484375 476.2015380859375 31.900146484375 496.0015869140625Q32.400146484375 515.8016357421875 32.400146484375 538.001708984375Q32.400146484375 563.00146484375 30.900146484375 610.2009887695312Q29.400146484375 657.4005126953125 25.400146484375 708.0Q71 707 125.59979248046875 706.0Q180.1995849609375 705.0 234.9993896484375 705.0Q289.7991943359375 705.0 334.3990478515625 705.0Q378.9989013671875 705.0 433.59869384765625 705.0Q488.198486328125 705.0 542.998291015625 706.0Q597.798095703125 707.0 642.39794921875 708.0Z M1161.9990234375 211.0001220703125Q1154.198974609375 195.400146484375 1138.2990112304688 178.30023193359375Q1122.3990478515625 161.2003173828125 1097.59912109375 149.5003662109375Q1072.7991943359375 137.8004150390625 1038.19921875 137.8004150390625Q1008.79931640625 137.8004150390625 981.2994384765625 148.90032958984375Q953.799560546875 160.000244140625 935.9996337890625 185.10009765625Q918.19970703125 210.199951171875 918.19970703125 251.3997802734375Q918.19970703125 313.3997802734375 962.8997192382812 356.8995361328125Q1007.5997314453125 400.3992919921875 1093.1993408203125 428.3992919921875Q1120.198974609375 437.19921875 1152.7989501953125 447.5992431640625Q1185.39892578125 457.999267578125 1220.4990234375 469.39935302734375Q1255.59912109375 480.7994384765625 1290.19921875 492.799560546875Q1324.79931640625 504.7996826171875 1355.7991943359375 515.999755859375Q1384.5992431640625 526.9998779296875 1412.3990478515625 540.0Q1440.1988525390625 553.0001220703125 1458.7986450195312 572.7001342773438Q1477.3984375 592.400146484375 1477.3984375 622.7999267578125Q1477.3984375 660.9998779296875 1448.5984497070312 683.3999633789062Q1419.7984619140625 705.800048828125 1378.3984375 705.800048828125Q1358.398193359375 705.800048828125 1349.3983154296875 699.7999267578125Q1371.1978759765625 690.800048828125 1381.8976440429688 675.500244140625Q1392.597412109375 660.200439453125 1392.597412109375 641.4007568359375Q1392.597412109375 619.801025390625 1379.49755859375 603.201171875Q1366.397705078125 586.601318359375 1345.9979248046875 577.7013549804688Q1325.59814453125 568.8013916015625 1303.1983642578125 568.8013916015625Q1271.598876953125 568.8013916015625 1251.0991821289062 586.401123046875Q1230.5994873046875 604.0008544921875 1230.5994873046875 632.4005126953125Q1230.5994873046875 659.80029296875 1248.2993774414062 678.8001708984375Q1265.999267578125 697.800048828125 1292.5989990234375 708.0Q1312.598876953125 716.5999755859375 1334.69873046875 719.2999877929688Q1356.798583984375 722.0 1373.9986572265625 722.0Q1412.798583984375 722.0 1443.4984741210938 709.1000366210938Q1474.1983642578125 696.2000732421875 1491.998291015625 667.3002319335938Q1509.7982177734375 638.400390625 1509.7982177734375 588.80078125Q1509.7982177734375 536.6015625 1488.298583984375 499.40191650390625Q1466.7989501953125 462.2022705078125 1424.4995727539062 435.00238037109375Q1382.2001953125 407.802490234375 1320.0009765625 385.2025146484375Q1292.4010009765625 374.6024169921875 1260.000732421875 363.30224609375Q1227.6004638671875 352.0020751953125 1193.3001098632812 340.8018798828125Q1158.999755859375 329.6016845703125 1126.199462890625 318.7015380859375Q1093.399169921875 307.8013916015625 1064.59912109375 297.601318359375Q1038.599365234375 289.0013427734375 1017.19921875 277.40130615234375Q995.799072265625 265.80126953125 983.3988647460938 249.8011474609375Q970.9986572265625 233.801025390625 970.9986572265625 212.4007568359375Q970.9986572265625 182.8006591796875 993.1987915039062 169.80047607421875Q1015.39892578125 156.80029296875 1042.19921875 156.80029296875Q1071.999267578125 156.80029296875 1093.2992553710938 167.90032958984375Q1114.5992431640625 179.0003662109375 1127.9992065429688 193.600341796875Q1141.399169921875 208.2003173828125 1146.59912109375 218.8001708984375ZM1051.9986572265625 569.99951171875Q1075.3988037109375 569.99951171875 1091.098876953125 583.5995483398438Q1106.7989501953125 597.1995849609375 1106.7989501953125 618.999755859375Q1106.7989501953125 642.8001708984375 1086.8986206054688 657.2003784179688Q1066.998291015625 671.6005859375 1034.9979248046875 671.6005859375Q999.397705078125 671.6005859375 968.2976684570312 653.6005249023438Q937.1976318359375 635.6004638671875 918.2976684570312 603.6004028320312Q899.397705078125 571.600341796875 899.397705078125 529.2003173828125Q899.397705078125 517.0 901.997802734375 503.899658203125Q904.597900390625 490.79931640625 909.9981689453125 477.9990234375Q927.9981689453125 480.9990234375 945.9981689453125 482.4990234375Q963.9981689453125 483.9990234375 972.9981689453125 483.9990234375Q1008.9981689453125 483.9990234375 1008.9981689453125 462.9990234375Q1008.9981689453125 451.9990234375 998.9981689453125 446.9990234375Q988.9981689453125 441.9990234375 977.9981689453125 441.9990234375Q958.9981689453125 441.9990234375 939.4981689453125 450.4990234375Q919.9981689453125 458.9990234375 908.9981689453125 463.9990234375Q873.5977783203125 450.9990234375 845.697509765625 419.99908447265625Q817.7972412109375 388.9991455078125 801.8970947265625 347.0992431640625Q785.9969482421875 305.1993408203125 785.9969482421875 257.3994140625Q785.9969482421875 196.199462890625 813.3971557617188 155.0994873046875Q840.79736328125 113.99951171875 891.797607421875 92.99951171875Q942.7978515625 71.99951171875 1012.39794921875 71.99951171875Q1063.7982177734375 71.99951171875 1111.6983032226562 83.49957275390625Q1159.598388671875 94.9996337890625 1197.3983764648438 117.99969482421875Q1235.1983642578125 140.999755859375 1257.6983032226562 176.0997314453125Q1280.1982421875 211.19970703125 1280.1982421875 257.99951171875Q1280.1982421875 295.5994873046875 1261.9982299804688 331.99957275390625Q1243.7982177734375 368.399658203125 1197.598388671875 390.3997802734375L1209.7984619140625 399.7996826171875Q1253.79833984375 376.9993896484375 1277.2982788085938 337.79937744140625Q1300.7982177734375 298.599365234375 1300.7982177734375 248.599365234375Q1300.7982177734375 201.3992919921875 1278.4982299804688 154.79937744140625Q1256.1982421875 108.199462890625 1211.0983276367188 70.099609375Q1165.9984130859375 31.999755859375 1098.1986694335938 8.9998779296875Q1030.39892578125 -14.0 938.9993896484375 -14.0Q849.199462890625 -14.0 778.69970703125 10.9000244140625Q708.199951171875 35.800048828125 667.6001586914062 84.5999755859375Q627.0003662109375 133.39990234375 627.0003662109375 205.399658203125Q627.0003662109375 270.199462890625 660.3001708984375 324.29931640625Q693.5999755859375 378.399169921875 754.0994873046875 416.6990966796875Q814.5989990234375 454.9990234375 895.9981689453125 471.9990234375Q850.5986328125 487.9991455078125 829.2987670898438 516.19921875Q807.9989013671875 544.3992919921875 807.9989013671875 576.1993408203125Q807.9989013671875 617.99951171875 837.4989624023438 645.899658203125Q866.9990234375 673.7998046875 911.5990600585938 687.89990234375Q956.1990966796875 702.0 1002.9990234375 702.0Q1066.19873046875 702.0 1097.5988159179688 679.4999389648438Q1128.9989013671875 656.9998779296875 1128.9989013671875 621.5997314453125Q1128.9989013671875 585.9996337890625 1103.298828125 568.9995727539062Q1077.5987548828125 551.99951171875 1051.798583984375 551.99951171875Z M1368.0001220703125 -188.0V-167.800048828125Q1407.600341796875 -164.400146484375 1436.0004272460938 -144.90008544921875Q1464.4005126953125 -125.4000244140625 1479.300537109375 -78.0999755859375Q1494.2005615234375 -30.7999267578125 1494.2005615234375 53.7999267578125V602.0Q1494.2005615234375 639.0 1488.800537109375 656.5Q1483.4005126953125 674.0 1467.1004638671875 680.5Q1450.8004150390625 687.0 1419.2003173828125 688.0V708.0Q1443.8001708984375 707.0 1484.39990234375 706.0Q1524.9996337890625 705.0 1569.79931640625 705.0Q1614.5989990234375 705.0 1657.4986572265625 706.0Q1700.3983154296875 707.0 1728.1981201171875 708.0V688.0Q1696.5980224609375 687.0 1680.2979736328125 680.5Q1663.9979248046875 674.0 1658.597900390625 656.5Q1653.1978759765625 639.0 1653.1978759765625 602.0V236.0Q1653.1978759765625 195.0 1653.0978393554688 147.29998779296875Q1652.997802734375 99.5999755859375 1649.497802734375 54.5999755859375Q1645.997802734375 9.5999755859375 1636.1978759765625 -25.0Q1616.197998046875 -94.4000244140625 1549.3984985351562 -141.20001220703125Q1482.5989990234375 -188.0 1368.0001220703125 -188.0Z" fill="#2a2a2a"/>
</svg>
