<svg xmlns="http://www.w3.org/2000/svg" width="32" height="32" viewBox="0 0 32 32">
  <rect width="32" height="32" rx="4" fill="#ed9dbc"/>
  <path transform="translate(16 16) scale(0.01822 -0.01822) translate(-793.799 -260.000)" d="M642.39794921875 708.0Q638.39794921875 657.4005126953125 636.89794921875 610.2009887695312Q635.39794921875 563.00146484375 635.39794921875 538.001708984375Q635.39794921875 515.8016357421875 636.39794921875 496.0015869140625Q637.39794921875 476.2015380859375 638.39794921875 462.00146484375H615.39794921875Q598.79833984375 546.40087890625 574.4988403320312 595.0005493164062Q550.1993408203125 643.6002197265625 516.2994995117188 664.3001098632812Q482.399658203125 685.0 435.5989990234375 685.0H413.397705078125V114.2000732421875Q413.397705078125 73.60009765625 421.4976806640625 53.60009765625Q429.59765625 33.60009765625 452.797607421875 27.2000732421875Q475.99755859375 20.800048828125 520.3974609375 20.0V0.0Q488.9976806640625 1.4000244140625 437.29815673828125 2.20001220703125Q385.5986328125 3.0 330.19921875 3.0Q274.9996337890625 3.0 226.20001220703125 2.20001220703125Q177.400390625 1.4000244140625 147.400634765625 0.0V20.0Q191.800537109375 20.800048828125 215.00048828125 27.2000732421875Q238.200439453125 33.60009765625 246.3004150390625 53.60009765625Q254.400390625 73.60009765625 254.400390625 114.2000732421875V685.0H232.1990966796875Q185.7984619140625 685.0 151.6986083984375 664.3001098632812Q117.5987548828125 643.6002197265625 93.5992431640625 595.300537109375Q69.5997314453125 547.0008544921875 52.400146484375 462.00146484375H29.400146484375Q31.400146484375 476.2015380859375 31.900146484375 496.0015869140625Q32.400146484375 515.8016357421875 32.400146484375 538.001708984375Q32.400146484375 563.00146484375 30.900146484375 610.2009887695312Q29.400146484375 657.4005126953125 25.400146484375 708.0Q71 707 125.59979248046875 706.0Q180.1995849609375 705.0 234.9993896484375 705.0Q289.7991943359375 705.0 334.3990478515625 705.0Q378.9989013671875 705.0 433.59869384765625 705.0Q488.198486328125 705.0 542.998291015625 706.0Q597.798095703125 707.0 642.39794921875 708.0Z M863.3671875 -12.0Q793.591796875 -12.0 742.85205078125 11.14794921875Q692.1123046875 34.2958984375 664.96435546875 76.3558349609375Q637.81640625 118.415771484375 637.81640625 174.23974609375Q637.81640625 227.4794921875 659.7283935546875 265.12744140625Q681.640380859375 302.775390625 716.3763427734375 329.4794921875Q751.1123046875 356.18359375 789.936279296875 377.091796875Q828.76025390625 398.0 863.4962158203125 417.76025390625Q898.232177734375 437.5205078125 920.1441650390625 461.104736328125Q942.05615234375 484.68896484375 942.05615234375 516.09716796875Q942.05615234375 539.20947265625 931.2359619140625 552.8779296875Q920.415771484375 566.54638671875 897.3671875 566.54638671875Q873.614501953125 566.54638671875 856.2662353515625 547.4659423828125Q838.91796875 528.385498046875 838.91796875 493.7451171875Q838.91796875 454.104736328125 862.56591796875 410.2003173828125Q886.2138671875 366.2958984375 925.9217529296875 322.803466796875Q965.629638671875 279.31103515625 1014.24951171875 240.170654296875Q1062.869384765625 201.0302734375 1111.9892578125 169.446044921875Q1153.28515625 143.037841796875 1194.9649658203125 127.95361328125Q1236.644775390625 112.869384765625 1261.876953125 106.63720703125L1226.8056640625 -12.0Q1178.502197265625 -2.471923828125 1126.670654296875 20.1160888671875Q1074.839111328125 42.7041015625 1023.951416015625 76.232177734375Q962.767822265625 116.76025390625 907.2041015625 168.288330078125Q851.640380859375 219.81640625 808.696533203125 276.5205078125Q765.752685546875 333.224609375 741.1927490234375 388.6927490234375Q716.6328125 444.160888671875 716.6328125 493.39306640625Q716.6328125 539.512939453125 738.4886474609375 578.1927490234375Q760.344482421875 616.87255859375 800.1441650390625 640.31640625Q839.94384765625 663.76025390625 894.42333984375 663.76025390625Q967.670654296875 663.76025390625 1011.0621337890625 623.7564697265625Q1054.45361328125 583.752685546875 1054.45361328125 516.44921875Q1054.45361328125 472.977294921875 1034.277587890625 439.477294921875Q1014.1015625 405.977294921875 982.6614990234375 379.0372314453125Q951.221435546875 352.09716796875 915.693359375 329.041015625Q880.165283203125 305.98486328125 848.7252197265625 283.9886474609375Q817.28515625 261.992431640625 797.109130859375 237.55615234375Q776.93310546875 213.119873046875 776.93310546875 182.83154296875Q776.93310546875 154.958984375 789.7813720703125 136.614501953125Q802.629638671875 118.27001953125 824.5340576171875 109.15771484375Q846.4384765625 100.04541015625 873.60693359375 100.04541015625Q908.247314453125 100.04541015625 943.0675048828125 118.3656005859375Q977.8876953125 136.685791015625 1009.23974609375 166.27001953125Q1047.94384765625 204.38232421875 1077.8558349609375 255.0826416015625Q1107.767822265625 305.782958984375 1124.2958984375 368.3671875H1258.11669921875Q1238.7646484375 296.191162109375 1201.496826171875 228.8671875Q1164.22900390625 161.543212890625 1110.34130859375 100.4794921875Q1065.925537109375 50.23974609375 1006.91796875 19.119873046875Q947.910400390625 -12.0 863.3671875 -12.0Z M1202.0001220703125 -188.0V-167.800048828125Q1241.600341796875 -164.400146484375 1270.0004272460938 -144.90008544921875Q1298.4005126953125 -125.4000244140625 1313.300537109375 -78.0999755859375Q1328.2005615234375 -30.7999267578125 1328.2005615234375 53.7999267578125V602.0Q1328.2005615234375 639.0 1322.800537109375 656.5Q1317.4005126953125 674.0 1301.1004638671875 680.5Q1284.8004150390625 687.0 1253.2003173828125 688.0V708.0Q1277.8001708984375 707.0 1318.39990234375 706.0Q1358.9996337890625 705.0 1403.79931640625 705.0Q1448.5989990234375 705.0 1491.4986572265625 706.0Q1534.3983154296875 707.0 1562.1981201171875 708.0V688.0Q1530.5980224609375 687.0 1514.2979736328125 680.5Q1497.9979248046875 674.0 1492.597900390625 656.5Q1487.1978759765625 639.0 1487.1978759765625 602.0V236.0Q1487.1978759765625 195.0 1487.0978393554688 147.29998779296875Q1486.997802734375 99.5999755859375 1483.497802734375 54.5999755859375Q1479.997802734375 9.5999755859375 1470.1978759765625 -25.0Q1450.197998046875 -94.4000244140625 1383.3984985351562 -141.20001220703125Q1316.5989990234375 -188.0 1202.0001220703125 -188.0Z" fill="#2a2a2a"/>
</svg>
