<svg xmlns="http://www.w3.org/2000/svg" width="32" height="32" viewBox="0 0 32 32">
  <rect width="32" height="32" rx="4" fill="#ed9dbc"/>
  <path transform="translate(16.000 16.000) scale(0.01118 -0.01118) translate(-964.299 -267.000)" d="M642.39794921875 708.0Q638.39794921875 657.4005126953125 636.89794921875 610.2009887695312Q635.39794921875 563.00146484375 635.39794921875 538.001708984375Q635.39794921875 515.8016357421875 636.39794921875 496.0015869140625Q637.39794921875 476.2015380859375 638.39794921875 462.00146484375H615.39794921875Q598.79833984375 546.40087890625 574.4988403320312 595.0005493164062Q550.1993408203125 643.6002197265625 516.2994995117188 664.3001098632812Q482.399658203125 685.0 435.5989990234375 685.0H413.397705078125V114.2000732421875Q413.397705078125 73.60009765625 421.4976806640625 53.60009765625Q429.59765625 33.60009765625 452.797607421875 27.2000732421875Q475.99755859375 20.800048828125 520.3974609375 20.0V0.0Q488.9976806640625 1.4000244140625 437.29815673828125 2.20001220703125Q385.5986328125 3.0 330.19921875 3.0Q274.9996337890625 3.0 226.20001220703125 2.20001220703125Q177.400390625 1.4000244140625 147.400634765625 0.0V20.0Q191.800537109375 20.800048828125 215.00048828125 27.2000732421875Q238.200439453125 33.60009765625 246.3004150390625 53.60009765625Q254.400390625 73.60009765625 254.400390625 114.2000732421875V685.0H232.1990966796875Q185.7984619140625 685.0 151.6986083984375 664.3001098632812Q117.5987548828125 643.6002197265625 93.5992431640625 595.300537109375Q69.5997314453125 547.0008544921875 52.400146484375 462.00146484375H29.400146484375Q31.400146484375 476.2015380859375 31.900146484375 496.0015869140625Q32.400146484375 515.8016357421875 32.400146484375 538.001708984375Q32.400146484375 563.00146484375 30.900146484375 610.2009887695312Q29.400146484375 657.4005126953125 25.400146484375 708.0Q71 707 125.59979248046875 706.0Q180.1995849609375 705.0 234.9993896484375 705.0Q289.7991943359375 705.0 334.3990478515625 705.0Q378.9989013671875 705.0 433.59869384765625 705.0Q488.198486328125 705.0 542.998291015625 706.0Q597.798095703125 707.0 642.39794921875 708.0ZM998.3990478515625 709.7996826171875Q1036.9990234375 709.7996826171875 1060.799072265625 704.299560546875Q1084.59912109375 698.7994384765625 1102.3990478515625 689.3992919921875Q1117.7989501953125 682.399169921875 1131.4987182617188 670.9991455078125Q1145.198486328125 659.59912109375 1153.998291015625 643.999267578125Q1162.798095703125 628.3994140625 1162.798095703125 608.3997802734375Q1162.798095703125 578.0 1139.8983154296875 559.8001708984375Q1116.99853515625 541.600341796875 1085.7989501953125 541.600341796875Q1056.1993408203125 541.600341796875 1034.799560546875 557.000244140625Q1013.3997802734375 572.400146484375 1013.3997802734375 603.599853515625Q1013.3997802734375 629.19970703125 1031.0996704101562 649.49951171875Q1048.799560546875 669.79931640625 1077.1993408203125 675.399169921875Q1069.5994873046875 682.9993896484375 1051.4993896484375 687.9995727539062Q1033.3992919921875 692.999755859375 1011.39892578125 692.999755859375Q959.198974609375 692.999755859375 922.7991333007812 660.3998413085938Q886.3992919921875 627.7999267578125 886.3992919921875 562.000244140625Q886.3992919921875 539.4000244140625 894.1994018554688 513.0999145507812Q901.99951171875 486.7998046875 925.3997802734375 459.999755859375Q942.3997802734375 464.19970703125 956.7999267578125 465.99969482421875Q971.2000732421875 467.7996826171875 981.4000244140625 467.7996826171875Q999.4000244140625 467.7996826171875 1008.9000854492188 460.5997314453125Q1018.400146484375 453.3997802734375 1018.400146484375 441.1998291015625Q1018.400146484375 431.599853515625 1010.3001708984375 425.9998779296875Q1002.2001953125 420.39990234375 990.400146484375 420.39990234375Q973.2000732421875 420.39990234375 955.199951171875 429.79986572265625Q937.1998291015625 439.1998291015625 926.3997802734375 445.999755859375Q879.1993408203125 422.4000244140625 849.799072265625 384.79998779296875Q820.3988037109375 347.199951171875 820.3988037109375 284.399658203125Q820.3988037109375 218.3995361328125 856.0988159179688 175.49932861328125Q891.798828125 132.59912109375 957.3986206054688 111.2989501953125Q1022.9984130859375 89.998779296875 1111.7978515625 89.998779296875Q1161.7979736328125 89.998779296875 1210.7979125976562 100.99884033203125Q1259.7978515625 111.9989013671875 1299.5977172851562 134.198974609375Q1339.3975830078125 156.3990478515625 1363.3974609375 188.6990966796875Q1387.3973388671875 220.9991455078125 1387.3973388671875 263.9991455078125Q1387.3973388671875 279.999267578125 1382.6972045898438 304.39947509765625Q1377.9970703125 328.7996826171875 1360.7967529296875 353.39984130859375Q1343.596435546875 378.0 1305.3958740234375 394.0L1311.99609375 402.800048828125Q1365.796875 386.1998291015625 1394.0969848632812 339.19976806640625Q1422.3970947265625 292.19970703125 1422.3970947265625 230.999755859375Q1422.3970947265625 161.400146484375 1379.1973876953125 105.8001708984375Q1335.9976806640625 50.2001953125 1258.3980712890625 18.10009765625Q1180.7984619140625 -14.0 1077.19873046875 -14.0Q994.199462890625 -14.0 926.6998291015625 3.0Q859.2001953125 20.0 810.600341796875 52.5Q762.00048828125 85.0 735.7005004882812 131.0Q709.4005126953125 177.0 709.4005126953125 235.0Q709.4005126953125 290.7999267578125 732.5004272460938 330.19989013671875Q755.600341796875 369.599853515625 789.6002197265625 395.1998291015625Q823.60009765625 420.7998046875 857.5999755859375 434.8997802734375Q891.599853515625 448.999755859375 912.3997802734375 453.999755859375Q881.19970703125 466.599853515625 855.3998413085938 484.0999755859375Q829.5999755859375 501.60009765625 814.5001220703125 525.8001098632812Q799.4002685546875 550.0001220703125 799.4002685546875 579.9998779296875Q799.4002685546875 612.3995361328125 816.1000366210938 636.699462890625Q832.7998046875 660.9993896484375 861.2994995117188 677.199462890625Q889.7991943359375 693.3995361328125 925.1990356445312 701.599609375Q960.598876953125 709.7996826171875 998.3990478515625 709.7996826171875ZM1391.1978759765625 722.0Q1461.5975341796875 722.0 1505.9974365234375 685.0000610351562Q1550.3973388671875 648.0001220703125 1550.3973388671875 581.000244140625Q1550.3973388671875 529.6009521484375 1525.5978393554688 494.7012939453125Q1500.79833984375 459.8016357421875 1455.29931640625 437.70172119140625Q1409.80029296875 415.601806640625 1347.4017333984375 402.601806640625Q1332.8013916015625 397.6015625 1312.1007080078125 391.50128173828125Q1291.4000244140625 385.4010009765625 1268.9992065429688 379.30072021484375Q1246.598388671875 373.200439453125 1226.09765625 367.3001708984375Q1205.596923828125 361.39990234375 1190.5965576171875 356.5997314453125Q1113.398193359375 339.599853515625 1071.098876953125 318.4998779296875Q1028.799560546875 297.39990234375 1028.799560546875 260.0001220703125Q1028.799560546875 235.2000732421875 1045.2994995117188 216.90008544921875Q1061.7994384765625 198.60009765625 1086.8992919921875 189.0001220703125Q1111.9991455078125 179.400146484375 1136.9989013671875 179.400146484375Q1143.5989990234375 179.400146484375 1151.69921875 180.7001953125Q1159.7994384765625 182.000244140625 1166.8995971679688 184.30035400390625Q1173.999755859375 186.6004638671875 1177.19970703125 189.400634765625Q1152.2000732421875 197.200439453125 1139.3999633789062 214.40020751953125Q1126.599853515625 231.5999755859375 1126.599853515625 254.800048828125Q1126.599853515625 286.5997314453125 1149.799560546875 303.599609375Q1172.999267578125 320.5994873046875 1206.798828125 320.5994873046875Q1242.79833984375 320.5994873046875 1263.298095703125 301.9996337890625Q1283.7978515625 283.3997802734375 1283.7978515625 252.800048828125Q1283.7978515625 221.8001708984375 1264.6978759765625 201.40020751953125Q1245.597900390625 181.000244140625 1213.5980834960938 171.500244140625Q1181.5982666015625 162.000244140625 1141.998779296875 162.000244140625Q1102.5992431640625 162.000244140625 1068.4994506835938 176.10015869140625Q1034.399658203125 190.2000732421875 1013.8997192382812 218.39996337890625Q993.3997802734375 246.599853515625 993.3997802734375 290.3997802734375Q993.3997802734375 342.799072265625 1020.29931640625 378.49871826171875Q1047.1988525390625 414.1983642578125 1097.3980712890625 437.5982666015625Q1147.5972900390625 460.9981689453125 1216.5963134765625 474.1982421875Q1237.5966796875 479.3984375 1263.1973876953125 485.69866943359375Q1288.798095703125 491.9989013671875 1315.6988525390625 499.09918212890625Q1342.599609375 506.199462890625 1366.400146484375 514.1998291015625Q1437.999267578125 531.800048828125 1477.2984008789062 554.0001220703125Q1516.5975341796875 576.2001953125 1516.5975341796875 613.19970703125Q1516.5975341796875 640.3997802734375 1500.2975463867188 660.7998657226562Q1483.99755859375 681.199951171875 1458.0975341796875 692.6000366210938Q1432.197509765625 704.0001220703125 1403.597412109375 704.0001220703125Q1394.5972900390625 704.0001220703125 1387.197265625 702.9000854492188Q1379.7972412109375 701.800048828125 1375.3973388671875 699.199951171875Q1399.596923828125 689.800048828125 1411.6967163085938 672.000244140625Q1423.7965087890625 654.200439453125 1423.7965087890625 635.8006591796875Q1423.7965087890625 605.2010498046875 1400.9967651367188 588.5011596679688Q1378.197021484375 571.80126953125 1344.3974609375 571.80126953125Q1310.3980712890625 571.80126953125 1288.2982788085938 589.4010620117188Q1266.198486328125 607.0008544921875 1266.198486328125 638.0006103515625Q1266.198486328125 664.6005859375 1281.5985717773438 683.5004272460938Q1296.9986572265625 702.4002685546875 1325.1985473632812 712.2001342773438Q1353.3984375 722.0 1391.1978759765625 722.0ZM1543.0001220703125 -188.0V-167.800048828125Q1582.600341796875 -164.400146484375 1611.0004272460938 -144.90008544921875Q1639.4005126953125 -125.4000244140625 1654.300537109375 -78.0999755859375Q1669.2005615234375 -30.7999267578125 1669.2005615234375 53.7999267578125V602.0Q1669.2005615234375 639.0 1663.800537109375 656.5Q1658.4005126953125 674.0 1642.1004638671875 680.5Q1625.8004150390625 687.0 1594.2003173828125 688.0V708.0Q1618.8001708984375 707.0 1659.39990234375 706.0Q1699.9996337890625 705.0 1744.79931640625 705.0Q1789.5989990234375 705.0 1832.4986572265625 706.0Q1875.3983154296875 707.0 1903.1981201171875 708.0V688.0Q1871.5980224609375 687.0 1855.2979736328125 680.5Q1838.9979248046875 674.0 1833.597900390625 656.5Q1828.1978759765625 639.0 1828.1978759765625 602.0V236.0Q1828.1978759765625 195.0 1828.0978393554688 147.29998779296875Q1827.997802734375 99.5999755859375 1824.497802734375 54.5999755859375Q1820.997802734375 9.5999755859375 1811.1978759765625 -25.0Q1791.197998046875 -94.4000244140625 1724.3984985351562 -141.20001220703125Q1657.5989990234375 -188.0 1543.0001220703125 -188.0Z" fill="#2a2a2a"/>
</svg>
